<?xml version="1.0" encoding="utf-8"?>
<!-- Generator: Adobe Illustrator 26.2.1, SVG Export Plug-In . SVG Version: 6.00 Build 0)  -->
<svg version="1.1" id="Layer_1" xmlns="http://www.w3.org/2000/svg" xmlns:xlink="http://www.w3.org/1999/xlink" x="0px" y="0px"
	 viewBox="0 0 792 792" style="enable-background:new 0 0 792 792;" xml:space="preserve">
<style type="text/css">
	.st0{fill:#FEDF1D;}
</style>
<path class="st0" d="M129.8,135.5l-28.6,30.4c-0.2,0.3-0.4,0.6-0.4,1L100,431.2c0,0.1,0,0.1,0,0.2c0.3,2.2,6.1,47.4,41.3,52.5
	c31.9,4.7,198.4,3.4,236.4,3.1c6.6-0.1,13.1-1.4,19.1-4c10-4.3,24.4-12.8,33.2-28.1c2.5-4.3,4-9,4.1-13.9l2.5-164.6c0,0-1-8,9-9.5
	c6.2,0,142.3-0.2,177-0.1c5.4,0,10.5,2.3,13.9,6.4c2.7,3.2,4.3,6.7,4.3,10.3l0.1,135.1c0,0-0.8,23.3-14.3,21.8L500.9,441
	c-12.7,0.1-32.3,0.7-41.7,8c-8.9,7-21.7,22.1-22.6,40.1c0,0,0,0.1,0,0.1l0.9,171.7c0,0.8,0.6,1.4,1.4,1.4l62.4,0.4
	c0.8,0,1.4-0.6,1.4-1.4V534.5c0-7.1,1.5-14.5,5.9-20.1c3.1-3.9,8.1-7,13.6-7.2l131.2-1.4c8.1-0.1,16.1-2.2,23.2-6.1
	c11.7-6.5,26.6-19.3,29.7-42.8c4.7-35.5,1-170.9,0.2-199.7c-0.1-5-1.2-9.8-3.1-14.4c-4-9.6-13.2-24.7-32.9-35.5
	c-5.3-2.9-11.3-4.4-17.4-4.4l-255.9-2.1c-3.7,0-7.3,1-10.3,3c-5.8,3.8-14.2,10.9-14.2,20.3l-2.3,169.8c0,0,0,22.5-22.4,25.5
	c-0.1,0-0.1,0-0.2,0L193.4,420c-0.1,0-0.1,0-0.2,0c-1.3-0.2-15.7-2.5-23.8-13.7c-2.9-4-4.3-8.9-4.3-13.8
	c-0.1-32.2-0.8-214.8-0.8-226.7c0-0.4-0.2-0.8-0.5-1l-32-29.3C131.2,134.9,130.4,135,129.8,135.5z"/>
<rect x="474" y="574.5" width="18.4" height="18.4"/>
<rect x="446.4" y="603.6" width="18.4" height="18.4"/>
<rect x="474.6" y="603.4" width="18.4" height="18.4"/>
<rect x="446.8" y="631.4" width="18.4" height="18.4"/>
<rect x="475.2" y="631.6" width="18.4" height="18.4"/>
</svg>
