<svg width="29" height="29" viewBox="0 0 29 29" fill="none" xmlns="http://www.w3.org/2000/svg">
<path d="M6.90957 15.2726C6.90957 15.2726 6.63495 15.2726 6.41159 15.1371C6.19921 15.0053 6.04177 14.76 6.04543 14.4304L6.01247 6.04898L4.78949 4.92853L3.69467 6.09292L3.66171 15.5619C3.65073 16.0086 3.7203 16.6713 4.06083 17.1034C4.40502 17.5391 4.66866 17.7186 5.36437 17.7405C6.60565 17.7771 12.5631 17.843 13.874 17.8321C14.0717 17.8284 14.2694 17.7918 14.4562 17.7186C14.8223 17.5721 15.4009 17.2572 15.7487 16.6567C15.8403 16.4992 15.8952 16.3271 15.8988 16.1477L15.9611 10.2708C15.9611 10.1683 15.9867 10.0658 16.038 9.9779C16.1002 9.87537 16.2064 9.76918 16.3932 9.76552C16.6129 9.76552 21.3107 9.80214 22.5447 9.81679C22.7534 9.82045 23.0207 9.88636 23.1818 10.0218C23.3612 10.172 23.4637 10.2928 23.4747 10.6443L23.4711 15.3239C23.4711 15.3239 23.537 16.1184 22.9475 16.1221H18.1434C17.693 16.1257 17.1401 16.2759 16.7886 16.5322C16.3089 16.8837 16.0197 17.2499 15.9867 17.909L16.0197 24.2509L18.407 24.2655V19.4651C18.407 19.2052 18.5096 18.9196 18.6743 18.7658C18.8318 18.6156 19.1101 18.568 19.3664 18.5497L23.9654 18.5131C24.7233 18.5095 25.0272 18.4326 25.3678 18.1177C25.6278 17.876 25.8804 17.6234 25.8621 16.7226C25.8731 15.3312 25.9024 10.5345 25.8694 9.43232C25.8621 9.22727 25.8182 9.02588 25.7376 8.83547C25.7303 8.82083 25.7266 8.80984 25.7193 8.79519C25.3238 7.95302 24.4743 7.42209 23.5443 7.41476L14.5477 7.33787C14.2621 7.32689 14.0424 7.45504 13.9618 7.53194C13.7824 7.71136 13.6433 7.92373 13.6469 8.19103L13.5627 14.4085C13.5627 14.4085 13.6433 15.3312 12.7535 15.3092" fill="white"/>
<path d="M18.0297 21.036H17.356V21.7097H18.0297V21.036Z" fill="black"/>
<path d="M17.019 22.1015H16.3452V22.7752H17.019V22.1015Z" fill="black"/>
<path d="M18.0517 22.0942H17.3779V22.7679H18.0517V22.0942Z" fill="black"/>
<path d="M17.0336 23.1194H16.3599V23.7932H17.0336V23.1194Z" fill="black"/>
<path d="M18.0736 23.1268H17.3999V23.8005H18.0736V23.1268Z" fill="black"/>
</svg>
