<svg width="25" height="25" viewBox="0 0 25 25" fill="none" xmlns="http://www.w3.org/2000/svg">
<g clip-path="url(#clip0_327_8)">
<path d="M17.5001 0.913066C15.506 1.46084 13.9207 3.26441 13.5873 5.35792C13.377 6.67029 13.7084 8.13985 14.4575 9.22836C15.3948 10.5951 16.7717 11.4346 18.3918 11.6255C19.224 11.7296 20.3243 11.5755 21.0957 11.2468C22.944 10.4686 24.2075 8.79401 24.4479 6.80275C24.552 5.97052 24.3979 4.87018 24.0692 4.09883C23.4498 2.61612 22.2693 1.51626 20.7396 0.990511C19.7118 0.639347 18.5976 0.610187 17.5001 0.913066ZM19.4357 2.24746C20.175 2.32886 20.7261 2.55621 21.38 3.04924C21.8396 3.39075 22.0138 3.56929 22.2686 3.93922C22.9835 4.99676 23.1573 6.23761 22.7604 7.45087C22.5134 8.20151 21.9094 9.00214 21.2555 9.44583C20.198 10.1608 18.9571 10.3346 17.7439 9.93762C17.0492 9.70671 16.2108 9.09007 15.7946 8.5038C15.036 7.43436 14.8459 6.07646 15.2815 4.84004C15.4988 4.21882 16.153 3.35147 16.6909 2.97161C17.4886 2.40672 18.4897 2.14126 19.4357 2.24746Z" fill="white"/>
<path d="M20.4443 5.31653C20.2224 5.47877 20.0887 5.80204 20.128 6.08279C20.1698 6.38121 20.0089 6.80962 19.7803 7.00881C19.664 7.11461 19.4411 7.22942 19.2346 7.28818C18.8213 7.40573 18.6447 7.5498 18.5543 7.84307C18.4254 8.24307 18.6432 8.64828 19.0616 8.78052C19.2614 8.84205 19.35 8.83556 19.7111 8.73122C20.8639 8.39669 21.6439 7.36254 21.6481 6.15644C21.6459 5.75679 21.6369 5.69247 21.5036 5.50821C21.3413 5.28633 21.0148 5.12913 20.7749 5.16272C20.6929 5.17447 20.5416 5.24324 20.4443 5.31653Z" fill="white"/>
<path d="M12.4205 9.29882C12.1509 9.50377 4.1852 21.2297 4.16858 21.4527C4.14362 21.7428 4.25676 21.9538 4.58754 22.2294L4.89849 22.4902L4.27106 23.336C3.42794 24.4747 3.41828 24.661 4.1455 25.2512L4.5491 25.5767L3.06256 25.7849C1.40045 26.0176 1.28669 26.0575 1.13069 26.479C1.03124 26.7496 1.05745 26.9368 1.22742 27.1697C1.5081 27.554 1.5023 27.5548 4.28215 27.1655C7.06226 26.7762 7.05646 26.777 7.22077 26.3304C7.38841 25.8653 7.27437 25.6901 6.27939 24.9344L5.47048 24.3136L5.80175 23.8673L6.13386 23.427L6.47577 23.6535C6.82541 23.8911 7.10848 23.9528 7.34956 23.8413C7.41666 23.808 9.79331 21.4762 12.6277 18.6623C17.8876 13.4386 17.9288 13.3911 17.8764 13.0165C17.8461 12.8001 17.6036 12.5177 17.3708 12.4309C16.9098 12.2509 17.1176 12.0726 12.0202 17.1368C9.43796 19.7066 7.24813 21.881 7.1583 21.9651L7.0016 22.1244L6.48107 21.7318L5.96634 21.3383L9.75899 15.7765C11.8493 12.7209 13.5724 10.1522 13.5902 10.0661C13.6664 9.71541 13.4585 9.33865 13.1002 9.20981C12.8356 9.10951 12.6366 9.13739 12.4205 9.29882Z" fill="white"/>
</g>
<defs>
<clipPath id="clip0_327_8">
<rect width="25" height="25" fill="white"/>
</clipPath>
</defs>
</svg>
