<svg width="25" height="25" viewBox="0 0 25 25" fill="none" xmlns="http://www.w3.org/2000/svg">
<path d="M12.5 0C5.59694 0 0 5.59694 0 12.5C0 19.4031 5.59694 25 12.5 25C19.4031 25 25 19.4031 25 12.5C25 5.59694 19.4031 0 12.5 0ZM12.5 23.6837C6.32398 23.6837 1.31633 18.676 1.31633 12.5C1.31633 6.32398 6.32398 1.31633 12.5 1.31633C18.676 1.31633 23.6837 6.32398 23.6837 12.5C23.6837 18.676 18.676 23.6837 12.5 23.6837Z" fill="#FBEE2A"/>
<path d="M10.0869 12.4999C10.0869 13.8316 11.166 14.9132 12.5002 14.9132C13.8344 14.9132 14.9134 13.8341 14.9134 12.4999C14.9134 11.1658 13.8344 10.0867 12.5002 10.0867C11.166 10.0867 10.0869 11.1683 10.0869 12.4999Z" fill="#FBEE2A"/>
<path d="M10.2398 5.18634C9.02292 5.53328 7.87496 6.18124 6.91833 7.13787C5.9617 8.0945 5.31374 9.24246 4.9668 10.4593L6.19384 11.6863C6.36731 10.3394 6.96425 9.03583 7.99741 8.00012C8.93618 7.06134 10.0918 6.47971 11.301 6.25012L10.2398 5.18634Z" fill="#FBEE2A"/>
<path d="M16.9925 16.9923C16.4644 17.5204 15.8649 17.9336 15.2246 18.2346L16.1914 19.2015C16.7552 18.875 17.2884 18.4719 17.7705 17.9897C18.2527 17.5076 18.6557 16.9744 18.9823 16.4107L18.0869 15.5153C17.8011 16.0459 17.4389 16.5459 16.9925 16.9923Z" fill="#FBEE2A"/>
</svg>
