<svg width="21" height="21" viewBox="0 0 21 21" fill="none" xmlns="http://www.w3.org/2000/svg">
<path d="M19.6329 20.6493C19.5531 20.7396 19.4397 20.79 19.3179 20.79H1.68214C1.56244 20.79 1.44694 20.7396 1.36714 20.6493C1.28734 20.559 1.24954 20.4393 1.26214 20.3217L2.94214 5.6238C2.96734 5.4117 3.14584 5.25 3.36004 5.25H4.81534C5.04844 5.25 5.23744 5.439 5.23744 5.6721C5.23744 5.9052 5.04844 6.0942 4.81534 6.0942H3.73594L2.15254 19.95H18.8454L17.262 6.0942H15.9432C15.7101 6.0942 15.5211 5.9052 15.5211 5.6721C15.5211 5.439 15.7101 5.25 15.9432 5.25H17.64C17.8542 5.25 18.0348 5.4117 18.0579 5.6238L19.7379 20.3217C19.7505 20.4393 19.7127 20.559 19.6329 20.6493Z" fill="#FBEE2A"/>
<path d="M13.0051 5.6699C13.0051 5.903 12.8161 6.092 12.583 6.092H8.48802C8.25492 6.092 8.06592 5.903 8.06592 5.6699C8.06592 5.4368 8.25492 5.2478 8.48802 5.2478H12.583C12.8161 5.2499 13.0051 5.4368 13.0051 5.6699Z" fill="#FBEE2A"/>
<path d="M15.1199 7.76996C15.1199 8.23406 14.744 8.60996 14.2799 8.60996C13.8158 8.60996 13.4399 8.23406 13.4399 7.76996C13.4399 7.45916 13.6079 7.18826 13.8578 7.04336V4.40996C13.8578 2.55776 12.3521 1.05206 10.4999 1.05206C8.64768 1.05206 7.14198 2.55776 7.14198 4.40996V7.04336C7.39188 7.18826 7.55988 7.45916 7.55988 7.76996C7.55988 8.23406 7.18398 8.60996 6.71988 8.60996C6.25578 8.60996 5.87988 8.23406 5.87988 7.76996C5.87988 7.45916 6.04788 7.18826 6.29778 7.04336V4.40996C6.29778 2.09366 8.18148 0.209961 10.4978 0.209961C12.8141 0.209961 14.6978 2.09366 14.6978 4.40996V7.04336C14.9519 7.18826 15.1199 7.45916 15.1199 7.76996Z" fill="#FBEE2A"/>
</svg>
