<svg width="23" height="21" viewBox="0 0 23 21" fill="none" xmlns="http://www.w3.org/2000/svg">
<path d="M13.8084 0C10.6445 0 8.07194 2.57251 8.07194 5.7365C8.07194 7.92173 9.30187 9.82529 11.1045 10.7947C7.34901 11.9518 4.6122 15.4538 4.6122 19.5849C4.6122 19.8876 4.85631 20.1317 5.1591 20.1317C5.46188 20.1317 5.70599 19.8876 5.70599 19.5849C5.70599 15.1182 9.33942 11.4847 13.7662 11.4824C13.8272 11.4871 13.8859 11.4847 13.9422 11.4707C17.0429 11.3979 19.5426 8.8559 19.5426 5.73885C19.5449 2.57251 16.9701 0 13.8084 0ZM13.8084 10.3769C11.25 10.3769 9.16808 8.29493 9.16808 5.7365C9.16808 3.17573 11.25 1.09613 13.8084 1.09613C16.3669 1.09613 18.4488 3.17808 18.4488 5.7365C18.4488 8.29493 16.3669 10.3769 13.8084 10.3769ZM20.3195 13.0902C20.1059 12.8766 19.7585 12.8766 19.545 13.0879C19.3314 13.3015 19.3314 13.6488 19.5426 13.8624C21.0683 15.3904 21.9062 17.4231 21.9062 19.5802C21.9062 19.8829 22.1503 20.127 22.4531 20.127C22.7559 20.127 23 19.8829 23 19.5802C23.0023 17.1321 22.0494 14.8271 20.3195 13.0902ZM8.01326 10.5154C8.01326 10.513 8.01326 10.513 8.01326 10.513C8.01326 10.2102 7.76916 9.96377 7.46637 9.96377C5.47831 9.96377 3.86345 8.23625 3.86345 6.1144C3.86345 3.99255 5.48066 2.26503 7.46637 2.26503C7.76916 2.26503 8.01326 2.01857 8.01326 1.71813C8.01326 1.41535 7.76916 1.17124 7.46637 1.17124C4.87509 1.17124 2.76732 3.38932 2.76732 6.11674C2.76732 7.93346 3.7015 9.5225 5.09103 10.3816C2.13593 11.4308 0 14.3788 0 17.8479C0 18.1507 0.244106 18.3948 0.546892 18.3948C0.849678 18.3948 1.09378 18.1507 1.09378 17.8479C1.09378 14.1089 3.9503 11.0669 7.46403 11.0669C7.76916 11.0646 8.01326 10.8205 8.01326 10.5154Z" fill="white"/>
</svg>
